# xmcd
#
# Track frame offsets:
#	180
#	12346
#	23705
#	37740
#	49906
#	63669
#	76041
#	89349
#	101981
#	114227
#	125887
#	139363
#	152839
#	164787
#	180558
#	194109
#	208689
#	220776
#	233224
#	245006
#	258146
#	271850
#	285080
#	298621
#
# Disc length: 4163 seconds
#
# Revision: 0
# Processed by: cddbd v1.5.2PL0 Copyright (c) Steve Scherf et al.
# Submitted via: audiograbber 1.83.01
#
DISCID=61104118
DTITLE=Various Artist - Blues goes on CD  4
DYEAR=1900
DGENRE=Blues
TTITLE0=B. B.King - Miss Martha King 
TTITLE1=Homer Harris - Atomic Bomb Blues
TTITLE2=Sonny Terry - Sweet Woman
TTITLE3=John Lee Williamson - Bad Luck Blues 
TTITLE4=Scrapper Blackwell - Kokomo Blues
TTITLE5=T-Bone Walker - I Know Your Wig Is Gone 
TTITLE6=Dr. Clayton - 41 Blues 
TTITLE7=John Lee Williamson - Black Gal  Blues 
TTITLE8=Peter Chatman and His Washboard Band - Blues At Midnight 
TTITLE9=Sonny Terry - Crow Jane Blues 
TTITLE10=Skip James - Devil Got My Woman
TTITLE11=Champion Jack Dupree - Cabbage Greens No. 1 
TTITLE12=Lightnin' Hopkins - West Cost Blues 
TTITLE13=Bessie Smith - You've Been A Good Old Wagon 
TTITLE14=John Lee Williamson - Good Morning Little School Girl 
TTITLE15=Big Joe Williams - Break'emOn Down 
TTITLE16=Lowell Fulson - River Blues Part 1 
TTITLE17=John Lee Williamson - Check Up On My Baby Blues 
TTITLE18=Joe Williams - Every Day 
TTITLE19=John Lee Williamson - HOO DOO HoodOO 
TTITLE20=T-Bone Walker - HardPain Blues 
TTITLE21=Down At The Landing  - Down At The Landing 
TTITLE22=Big Joe Turner - Goin' To Chicago Blues 
TTITLE23=Leadbelly - Fort Worth And Dallas Blues 
EXTD=
EXTT0=
EXTT1=
EXTT2=
EXTT3=
EXTT4=
EXTT5=
EXTT6=
EXTT7=
EXTT8=
EXTT9=
EXTT10=
EXTT11=
EXTT12=
EXTT13=
EXTT14=
EXTT15=
EXTT16=
EXTT17=
EXTT18=
EXTT19=
EXTT20=
EXTT21=
EXTT22=
EXTT23=
PLAYORDER=
